<mxfile host="app.diagrams.net" modified="2022-01-16T12:03:57.719Z" agent="5.0 (Windows NT 10.0; Win64; x64) AppleWebKit/537.36 (KHTML, like Gecko) Chrome/97.0.4692.71 Safari/537.36" etag="J1Z3CXnL3vCrC5pHvOIr" version="16.2.6" type="github">
  <diagram id="tddHN0Mqx7I8K-gPf1cZ" name="第 1 页">
    <mxGraphModel dx="782" dy="513" grid="1" gridSize="10" guides="1" tooltips="1" connect="1" arrows="1" fold="1" page="1" pageScale="1" pageWidth="827" pageHeight="1169" math="0" shadow="0">
      <root>
        <mxCell id="YnTIpzKEciXYaroOoSWn-0" />
        <mxCell id="YnTIpzKEciXYaroOoSWn-1" parent="YnTIpzKEciXYaroOoSWn-0" />
        <mxCell id="kF20QqcLhvxLqhXVe1Pa-0" value="电表管理" style="swimlane;dashed=1;fillColor=default;align=left;spacingLeft=20;rounded=0;swimlaneLine=1;container=1;sketch=0;movable=1;" parent="YnTIpzKEciXYaroOoSWn-1" vertex="1">
          <mxGeometry x="10" y="300" width="1040" height="3090" as="geometry">
            <mxRectangle y="240" width="150" height="23" as="alternateBounds" />
          </mxGeometry>
        </mxCell>
        <mxCell id="kF20QqcLhvxLqhXVe1Pa-3" value="电表管理" style="swimlane;rounded=0;dashed=1;sketch=0;fillColor=none;spacingLeft=20;align=left;" parent="kF20QqcLhvxLqhXVe1Pa-0" vertex="1">
          <mxGeometry x="20" y="30" width="950" height="470" as="geometry" />
        </mxCell>
        <mxCell id="kF20QqcLhvxLqhXVe1Pa-15" style="rounded=0;orthogonalLoop=1;jettySize=auto;html=1;exitX=1;exitY=0.5;exitDx=0;exitDy=0;entryX=0.5;entryY=1;entryDx=0;entryDy=0;strokeColor=default;endArrow=none;endFill=0;" parent="kF20QqcLhvxLqhXVe1Pa-3" source="kF20QqcLhvxLqhXVe1Pa-7" target="kF20QqcLhvxLqhXVe1Pa-10" edge="1">
          <mxGeometry relative="1" as="geometry" />
        </mxCell>
        <mxCell id="kF20QqcLhvxLqhXVe1Pa-7" value="电表位置" style="whiteSpace=wrap;html=1;align=center;rounded=0;sketch=0;fillColor=none;" parent="kF20QqcLhvxLqhXVe1Pa-3" vertex="1">
          <mxGeometry x="28" y="279" width="100" height="50" as="geometry" />
        </mxCell>
        <mxCell id="kF20QqcLhvxLqhXVe1Pa-9" value="分类" style="whiteSpace=wrap;html=1;align=center;rounded=0;sketch=0;fillColor=none;" parent="kF20QqcLhvxLqhXVe1Pa-3" vertex="1">
          <mxGeometry x="30" y="40" width="100" height="50" as="geometry" />
        </mxCell>
        <mxCell id="kF20QqcLhvxLqhXVe1Pa-10" value="编号" style="ellipse;whiteSpace=wrap;html=1;align=center;fontStyle=4;rounded=0;sketch=0;fillColor=none;" parent="kF20QqcLhvxLqhXVe1Pa-3" vertex="1">
          <mxGeometry x="110" y="140" width="100" height="40" as="geometry" />
        </mxCell>
        <mxCell id="kF20QqcLhvxLqhXVe1Pa-11" value="种类" style="ellipse;whiteSpace=wrap;html=1;align=center;fontStyle=4;rounded=0;sketch=0;fillColor=none;" parent="kF20QqcLhvxLqhXVe1Pa-3" vertex="1">
          <mxGeometry x="250" y="268" width="100" height="36" as="geometry" />
        </mxCell>
        <mxCell id="kF20QqcLhvxLqhXVe1Pa-13" value="位置" style="ellipse;whiteSpace=wrap;html=1;align=center;fontStyle=4;rounded=0;sketch=0;fillColor=none;" parent="kF20QqcLhvxLqhXVe1Pa-3" vertex="1">
          <mxGeometry x="250" y="372" width="100" height="40" as="geometry" />
        </mxCell>
        <mxCell id="kF20QqcLhvxLqhXVe1Pa-17" style="rounded=0;orthogonalLoop=1;jettySize=auto;html=1;exitX=1;exitY=0.5;exitDx=0;exitDy=0;strokeColor=default;endArrow=none;endFill=0;entryX=0;entryY=0.5;entryDx=0;entryDy=0;" parent="kF20QqcLhvxLqhXVe1Pa-3" source="kF20QqcLhvxLqhXVe1Pa-7" target="kF20QqcLhvxLqhXVe1Pa-11" edge="1">
          <mxGeometry relative="1" as="geometry">
            <mxPoint x="140" y="294" as="sourcePoint" />
            <mxPoint x="190" y="262" as="targetPoint" />
          </mxGeometry>
        </mxCell>
        <mxCell id="kF20QqcLhvxLqhXVe1Pa-19" style="rounded=0;orthogonalLoop=1;jettySize=auto;html=1;exitX=1;exitY=0.5;exitDx=0;exitDy=0;strokeColor=default;endArrow=none;endFill=0;entryX=0;entryY=0.5;entryDx=0;entryDy=0;" parent="kF20QqcLhvxLqhXVe1Pa-3" source="kF20QqcLhvxLqhXVe1Pa-7" target="kF20QqcLhvxLqhXVe1Pa-13" edge="1">
          <mxGeometry relative="1" as="geometry">
            <mxPoint x="140" y="303" as="sourcePoint" />
            <mxPoint x="196" y="342" as="targetPoint" />
          </mxGeometry>
        </mxCell>
        <mxCell id="kF20QqcLhvxLqhXVe1Pa-21" value="名称" style="ellipse;whiteSpace=wrap;html=1;align=center;fontStyle=4;rounded=0;sketch=0;fillColor=none;" parent="kF20QqcLhvxLqhXVe1Pa-3" vertex="1">
          <mxGeometry x="190" y="180" width="100" height="40" as="geometry" />
        </mxCell>
        <mxCell id="kF20QqcLhvxLqhXVe1Pa-22" style="rounded=0;orthogonalLoop=1;jettySize=auto;html=1;exitX=1;exitY=0.5;exitDx=0;exitDy=0;entryX=0;entryY=0.5;entryDx=0;entryDy=0;strokeColor=default;endArrow=none;endFill=0;" parent="kF20QqcLhvxLqhXVe1Pa-3" source="kF20QqcLhvxLqhXVe1Pa-7" target="kF20QqcLhvxLqhXVe1Pa-21" edge="1">
          <mxGeometry relative="1" as="geometry">
            <mxPoint x="140" y="303" as="sourcePoint" />
            <mxPoint x="202" y="152" as="targetPoint" />
          </mxGeometry>
        </mxCell>
        <mxCell id="kF20QqcLhvxLqhXVe1Pa-34" value="名称" style="ellipse;whiteSpace=wrap;html=1;align=center;fontStyle=4;rounded=0;sketch=0;fillColor=none;" parent="kF20QqcLhvxLqhXVe1Pa-3" vertex="1">
          <mxGeometry x="210" y="30" width="100" height="40" as="geometry" />
        </mxCell>
        <mxCell id="kF20QqcLhvxLqhXVe1Pa-36" style="rounded=0;orthogonalLoop=1;jettySize=auto;html=1;exitX=1;exitY=0.5;exitDx=0;exitDy=0;entryX=0;entryY=0.5;entryDx=0;entryDy=0;strokeColor=default;endArrow=none;endFill=0;" parent="kF20QqcLhvxLqhXVe1Pa-3" source="kF20QqcLhvxLqhXVe1Pa-9" target="kF20QqcLhvxLqhXVe1Pa-34" edge="1">
          <mxGeometry relative="1" as="geometry">
            <mxPoint x="130" y="161" as="sourcePoint" />
            <mxPoint x="192" y="10" as="targetPoint" />
          </mxGeometry>
        </mxCell>
        <mxCell id="kF20QqcLhvxLqhXVe1Pa-14" value="关联设备" style="ellipse;whiteSpace=wrap;html=1;align=center;fontStyle=4;rounded=0;sketch=0;fillColor=none;" parent="kF20QqcLhvxLqhXVe1Pa-3" vertex="1">
          <mxGeometry x="190" y="420" width="100" height="40" as="geometry" />
        </mxCell>
        <mxCell id="kF20QqcLhvxLqhXVe1Pa-20" style="rounded=0;orthogonalLoop=1;jettySize=auto;html=1;exitX=1;exitY=0.5;exitDx=0;exitDy=0;strokeColor=default;endArrow=none;endFill=0;entryX=0;entryY=0.5;entryDx=0;entryDy=0;" parent="kF20QqcLhvxLqhXVe1Pa-3" source="kF20QqcLhvxLqhXVe1Pa-7" target="kF20QqcLhvxLqhXVe1Pa-14" edge="1">
          <mxGeometry relative="1" as="geometry">
            <mxPoint x="130" y="303" as="sourcePoint" />
            <mxPoint x="196" y="360" as="targetPoint" />
          </mxGeometry>
        </mxCell>
        <mxCell id="kF20QqcLhvxLqhXVe1Pa-12" value="工段" style="ellipse;whiteSpace=wrap;html=1;align=center;fontStyle=4;rounded=0;sketch=0;fillColor=none;" parent="kF20QqcLhvxLqhXVe1Pa-3" vertex="1">
          <mxGeometry x="250" y="318" width="100" height="40" as="geometry" />
        </mxCell>
        <mxCell id="kF20QqcLhvxLqhXVe1Pa-18" style="rounded=0;orthogonalLoop=1;jettySize=auto;html=1;exitX=1;exitY=0.5;exitDx=0;exitDy=0;strokeColor=default;endArrow=none;endFill=0;entryX=0;entryY=0.5;entryDx=0;entryDy=0;" parent="kF20QqcLhvxLqhXVe1Pa-3" source="kF20QqcLhvxLqhXVe1Pa-7" target="kF20QqcLhvxLqhXVe1Pa-12" edge="1">
          <mxGeometry relative="1" as="geometry">
            <mxPoint x="150" y="302" as="sourcePoint" />
            <mxPoint x="217" y="301" as="targetPoint" />
          </mxGeometry>
        </mxCell>
        <mxCell id="kF20QqcLhvxLqhXVe1Pa-37" value="父节点" style="ellipse;whiteSpace=wrap;html=1;align=center;fontStyle=4;rounded=0;sketch=0;fillColor=none;" parent="kF20QqcLhvxLqhXVe1Pa-3" vertex="1">
          <mxGeometry x="250" y="220" width="100" height="40" as="geometry" />
        </mxCell>
        <mxCell id="kF20QqcLhvxLqhXVe1Pa-39" value="父节点" style="ellipse;whiteSpace=wrap;html=1;align=center;fontStyle=4;rounded=0;sketch=0;fillColor=none;" parent="kF20QqcLhvxLqhXVe1Pa-3" vertex="1">
          <mxGeometry x="210" y="80" width="100" height="40" as="geometry" />
        </mxCell>
        <mxCell id="kF20QqcLhvxLqhXVe1Pa-40" style="rounded=0;orthogonalLoop=1;jettySize=auto;html=1;exitX=1;exitY=0.5;exitDx=0;exitDy=0;strokeColor=default;endArrow=none;endFill=0;" parent="kF20QqcLhvxLqhXVe1Pa-3" source="kF20QqcLhvxLqhXVe1Pa-9" target="kF20QqcLhvxLqhXVe1Pa-39" edge="1">
          <mxGeometry relative="1" as="geometry">
            <mxPoint x="140" y="75" as="sourcePoint" />
            <mxPoint x="220" y="60" as="targetPoint" />
          </mxGeometry>
        </mxCell>
        <mxCell id="kF20QqcLhvxLqhXVe1Pa-67" style="rounded=0;orthogonalLoop=1;jettySize=auto;html=1;entryX=0;entryY=0.5;entryDx=0;entryDy=0;strokeColor=default;endArrow=none;endFill=0;exitX=1;exitY=0.5;exitDx=0;exitDy=0;" parent="kF20QqcLhvxLqhXVe1Pa-3" source="kF20QqcLhvxLqhXVe1Pa-7" target="kF20QqcLhvxLqhXVe1Pa-37" edge="1">
          <mxGeometry relative="1" as="geometry">
            <mxPoint x="170" y="270" as="sourcePoint" />
            <mxPoint x="200" y="210" as="targetPoint" />
          </mxGeometry>
        </mxCell>
        <mxCell id="kF20QqcLhvxLqhXVe1Pa-140" value="在线状态" style="ellipse;whiteSpace=wrap;html=1;align=center;fontStyle=4;rounded=0;sketch=0;fillColor=none;" parent="kF20QqcLhvxLqhXVe1Pa-3" vertex="1">
          <mxGeometry x="50" y="420" width="100" height="40" as="geometry" />
        </mxCell>
        <mxCell id="kF20QqcLhvxLqhXVe1Pa-141" style="rounded=0;orthogonalLoop=1;jettySize=auto;html=1;exitX=0.5;exitY=1;exitDx=0;exitDy=0;strokeColor=default;endArrow=none;endFill=0;" parent="kF20QqcLhvxLqhXVe1Pa-3" source="kF20QqcLhvxLqhXVe1Pa-7" target="kF20QqcLhvxLqhXVe1Pa-140" edge="1">
          <mxGeometry relative="1" as="geometry">
            <mxPoint x="138" y="314" as="sourcePoint" />
            <mxPoint x="200" y="450" as="targetPoint" />
          </mxGeometry>
        </mxCell>
        <mxCell id="3YCKmLj3-sgEK2TtLKu--0" value="电表位置绑定记录" style="whiteSpace=wrap;html=1;align=center;rounded=0;sketch=0;fillColor=none;" vertex="1" parent="kF20QqcLhvxLqhXVe1Pa-3">
          <mxGeometry x="510" y="200" width="100" height="50" as="geometry" />
        </mxCell>
        <mxCell id="3YCKmLj3-sgEK2TtLKu--2" value="电表位置" style="ellipse;whiteSpace=wrap;html=1;align=center;fontStyle=4;rounded=0;sketch=0;fillColor=none;" vertex="1" parent="kF20QqcLhvxLqhXVe1Pa-3">
          <mxGeometry x="640" y="130" width="100" height="40" as="geometry" />
        </mxCell>
        <mxCell id="3YCKmLj3-sgEK2TtLKu--3" value="电表编号" style="ellipse;whiteSpace=wrap;html=1;align=center;fontStyle=4;rounded=0;sketch=0;fillColor=none;" vertex="1" parent="kF20QqcLhvxLqhXVe1Pa-3">
          <mxGeometry x="640" y="211" width="100" height="40" as="geometry" />
        </mxCell>
        <mxCell id="3YCKmLj3-sgEK2TtLKu--4" value="初始值" style="ellipse;whiteSpace=wrap;html=1;align=center;fontStyle=4;rounded=0;sketch=0;fillColor=none;" vertex="1" parent="kF20QqcLhvxLqhXVe1Pa-3">
          <mxGeometry x="640" y="304" width="100" height="40" as="geometry" />
        </mxCell>
        <mxCell id="kF20QqcLhvxLqhXVe1Pa-41" value="电表分组管理" style="swimlane;rounded=0;dashed=1;sketch=0;fillColor=none;spacingLeft=20;align=left;" parent="kF20QqcLhvxLqhXVe1Pa-0" vertex="1">
          <mxGeometry x="20" y="530" width="610" height="550" as="geometry" />
        </mxCell>
        <mxCell id="kF20QqcLhvxLqhXVe1Pa-44" value="分组" style="whiteSpace=wrap;html=1;align=center;rounded=0;sketch=0;fillColor=none;" parent="kF20QqcLhvxLqhXVe1Pa-41" vertex="1">
          <mxGeometry x="20" y="150" width="100" height="50" as="geometry" />
        </mxCell>
        <mxCell id="kF20QqcLhvxLqhXVe1Pa-52" value="名称" style="ellipse;whiteSpace=wrap;html=1;align=center;fontStyle=4;rounded=0;sketch=0;fillColor=none;" parent="kF20QqcLhvxLqhXVe1Pa-41" vertex="1">
          <mxGeometry x="230" y="50" width="100" height="40" as="geometry" />
        </mxCell>
        <mxCell id="kF20QqcLhvxLqhXVe1Pa-53" style="rounded=0;orthogonalLoop=1;jettySize=auto;html=1;exitX=1;exitY=0.5;exitDx=0;exitDy=0;entryX=0;entryY=0.5;entryDx=0;entryDy=0;strokeColor=default;endArrow=none;endFill=0;" parent="kF20QqcLhvxLqhXVe1Pa-41" source="kF20QqcLhvxLqhXVe1Pa-44" target="kF20QqcLhvxLqhXVe1Pa-52" edge="1">
          <mxGeometry relative="1" as="geometry">
            <mxPoint x="130" y="161" as="sourcePoint" />
            <mxPoint x="192" y="10" as="targetPoint" />
          </mxGeometry>
        </mxCell>
        <mxCell id="kF20QqcLhvxLqhXVe1Pa-60" value="总数项" style="ellipse;whiteSpace=wrap;html=1;align=center;fontStyle=4;rounded=0;sketch=0;fillColor=none;" parent="kF20QqcLhvxLqhXVe1Pa-41" vertex="1">
          <mxGeometry x="230" y="110" width="100" height="40" as="geometry" />
        </mxCell>
        <mxCell id="kF20QqcLhvxLqhXVe1Pa-61" style="rounded=0;orthogonalLoop=1;jettySize=auto;html=1;exitX=1;exitY=0.5;exitDx=0;exitDy=0;strokeColor=default;endArrow=none;endFill=0;entryX=0;entryY=0.5;entryDx=0;entryDy=0;" parent="kF20QqcLhvxLqhXVe1Pa-41" source="kF20QqcLhvxLqhXVe1Pa-44" target="kF20QqcLhvxLqhXVe1Pa-60" edge="1">
          <mxGeometry relative="1" as="geometry">
            <mxPoint x="140" y="75" as="sourcePoint" />
            <mxPoint x="220" y="60" as="targetPoint" />
          </mxGeometry>
        </mxCell>
        <mxCell id="kF20QqcLhvxLqhXVe1Pa-94" value="N" style="edgeLabel;html=1;align=center;verticalAlign=middle;resizable=0;points=[];" parent="kF20QqcLhvxLqhXVe1Pa-61" vertex="1" connectable="0">
          <mxGeometry x="0.7812" relative="1" as="geometry">
            <mxPoint as="offset" />
          </mxGeometry>
        </mxCell>
        <mxCell id="kF20QqcLhvxLqhXVe1Pa-95" value="1" style="edgeLabel;html=1;align=center;verticalAlign=middle;resizable=0;points=[];" parent="kF20QqcLhvxLqhXVe1Pa-61" vertex="1" connectable="0">
          <mxGeometry x="-0.5221" y="-2" relative="1" as="geometry">
            <mxPoint as="offset" />
          </mxGeometry>
        </mxCell>
        <mxCell id="kF20QqcLhvxLqhXVe1Pa-62" value="排除项" style="ellipse;whiteSpace=wrap;html=1;align=center;fontStyle=4;rounded=0;sketch=0;fillColor=none;" parent="kF20QqcLhvxLqhXVe1Pa-41" vertex="1">
          <mxGeometry x="230" y="170" width="100" height="40" as="geometry" />
        </mxCell>
        <mxCell id="kF20QqcLhvxLqhXVe1Pa-63" value="分摊项" style="ellipse;whiteSpace=wrap;html=1;align=center;fontStyle=4;rounded=0;sketch=0;fillColor=none;" parent="kF20QqcLhvxLqhXVe1Pa-41" vertex="1">
          <mxGeometry x="240" y="240" width="100" height="40" as="geometry" />
        </mxCell>
        <mxCell id="kF20QqcLhvxLqhXVe1Pa-65" style="rounded=0;orthogonalLoop=1;jettySize=auto;html=1;exitX=1;exitY=0.5;exitDx=0;exitDy=0;entryX=0.05;entryY=0.675;entryDx=0;entryDy=0;strokeColor=default;endArrow=none;endFill=0;entryPerimeter=0;" parent="kF20QqcLhvxLqhXVe1Pa-41" source="kF20QqcLhvxLqhXVe1Pa-44" target="kF20QqcLhvxLqhXVe1Pa-62" edge="1">
          <mxGeometry relative="1" as="geometry">
            <mxPoint x="130" y="185" as="sourcePoint" />
            <mxPoint x="240" y="80" as="targetPoint" />
          </mxGeometry>
        </mxCell>
        <mxCell id="kF20QqcLhvxLqhXVe1Pa-96" value="1" style="edgeLabel;html=1;align=center;verticalAlign=middle;resizable=0;points=[];" parent="kF20QqcLhvxLqhXVe1Pa-65" vertex="1" connectable="0">
          <mxGeometry x="-0.4471" y="1" relative="1" as="geometry">
            <mxPoint as="offset" />
          </mxGeometry>
        </mxCell>
        <mxCell id="kF20QqcLhvxLqhXVe1Pa-97" value="N" style="edgeLabel;html=1;align=center;verticalAlign=middle;resizable=0;points=[];" parent="kF20QqcLhvxLqhXVe1Pa-65" vertex="1" connectable="0">
          <mxGeometry x="0.6884" relative="1" as="geometry">
            <mxPoint as="offset" />
          </mxGeometry>
        </mxCell>
        <mxCell id="kF20QqcLhvxLqhXVe1Pa-66" style="rounded=0;orthogonalLoop=1;jettySize=auto;html=1;exitX=1;exitY=0.5;exitDx=0;exitDy=0;entryX=0;entryY=0.5;entryDx=0;entryDy=0;strokeColor=default;endArrow=none;endFill=0;" parent="kF20QqcLhvxLqhXVe1Pa-41" source="kF20QqcLhvxLqhXVe1Pa-44" target="kF20QqcLhvxLqhXVe1Pa-63" edge="1">
          <mxGeometry relative="1" as="geometry">
            <mxPoint x="130" y="185" as="sourcePoint" />
            <mxPoint x="255" y="227" as="targetPoint" />
          </mxGeometry>
        </mxCell>
        <mxCell id="kF20QqcLhvxLqhXVe1Pa-98" value="1" style="edgeLabel;html=1;align=center;verticalAlign=middle;resizable=0;points=[];" parent="kF20QqcLhvxLqhXVe1Pa-66" vertex="1" connectable="0">
          <mxGeometry x="-0.4862" y="-1" relative="1" as="geometry">
            <mxPoint as="offset" />
          </mxGeometry>
        </mxCell>
        <mxCell id="kF20QqcLhvxLqhXVe1Pa-99" value="N" style="edgeLabel;html=1;align=center;verticalAlign=middle;resizable=0;points=[];" parent="kF20QqcLhvxLqhXVe1Pa-66" vertex="1" connectable="0">
          <mxGeometry x="0.736" relative="1" as="geometry">
            <mxPoint as="offset" />
          </mxGeometry>
        </mxCell>
        <mxCell id="kF20QqcLhvxLqhXVe1Pa-68" value="总数项/排除项/分摊项" style="whiteSpace=wrap;html=1;align=center;rounded=0;sketch=0;fillColor=none;" parent="kF20QqcLhvxLqhXVe1Pa-41" vertex="1">
          <mxGeometry x="20" y="360" width="100" height="50" as="geometry" />
        </mxCell>
        <mxCell id="kF20QqcLhvxLqhXVe1Pa-70" value="电表位置" style="ellipse;whiteSpace=wrap;html=1;align=center;fontStyle=4;rounded=0;sketch=0;fillColor=none;" parent="kF20QqcLhvxLqhXVe1Pa-41" vertex="1">
          <mxGeometry x="230" y="340" width="100" height="40" as="geometry" />
        </mxCell>
        <mxCell id="kF20QqcLhvxLqhXVe1Pa-71" style="rounded=0;orthogonalLoop=1;jettySize=auto;html=1;exitX=1;exitY=0.5;exitDx=0;exitDy=0;entryX=0;entryY=0.5;entryDx=0;entryDy=0;strokeColor=default;endArrow=none;endFill=0;" parent="kF20QqcLhvxLqhXVe1Pa-41" source="kF20QqcLhvxLqhXVe1Pa-68" target="kF20QqcLhvxLqhXVe1Pa-70" edge="1">
          <mxGeometry relative="1" as="geometry">
            <mxPoint x="130" y="185" as="sourcePoint" />
            <mxPoint x="250" y="270" as="targetPoint" />
          </mxGeometry>
        </mxCell>
        <mxCell id="kF20QqcLhvxLqhXVe1Pa-72" value="比例" style="ellipse;whiteSpace=wrap;html=1;align=center;fontStyle=4;rounded=0;sketch=0;fillColor=none;" parent="kF20QqcLhvxLqhXVe1Pa-41" vertex="1">
          <mxGeometry x="230" y="410" width="100" height="40" as="geometry" />
        </mxCell>
        <mxCell id="kF20QqcLhvxLqhXVe1Pa-73" style="rounded=0;orthogonalLoop=1;jettySize=auto;html=1;exitX=1;exitY=0.5;exitDx=0;exitDy=0;entryX=0;entryY=0.5;entryDx=0;entryDy=0;strokeColor=default;endArrow=none;endFill=0;" parent="kF20QqcLhvxLqhXVe1Pa-41" source="kF20QqcLhvxLqhXVe1Pa-68" target="kF20QqcLhvxLqhXVe1Pa-72" edge="1">
          <mxGeometry relative="1" as="geometry">
            <mxPoint x="130" y="415" as="sourcePoint" />
            <mxPoint x="240" y="370" as="targetPoint" />
          </mxGeometry>
        </mxCell>
        <mxCell id="kF20QqcLhvxLqhXVe1Pa-74" value="电表时间段管理" style="swimlane;rounded=0;dashed=1;sketch=0;fillColor=none;spacingLeft=20;align=left;" parent="kF20QqcLhvxLqhXVe1Pa-0" vertex="1">
          <mxGeometry x="20" y="1120" width="610" height="470" as="geometry" />
        </mxCell>
        <mxCell id="kF20QqcLhvxLqhXVe1Pa-75" value="计费时间段分组" style="whiteSpace=wrap;html=1;align=center;rounded=0;sketch=0;fillColor=none;" parent="kF20QqcLhvxLqhXVe1Pa-74" vertex="1">
          <mxGeometry x="10" y="80" width="100" height="50" as="geometry" />
        </mxCell>
        <mxCell id="kF20QqcLhvxLqhXVe1Pa-76" value="名称" style="ellipse;whiteSpace=wrap;html=1;align=center;fontStyle=4;rounded=0;sketch=0;fillColor=none;" parent="kF20QqcLhvxLqhXVe1Pa-74" vertex="1">
          <mxGeometry x="230" y="50" width="100" height="40" as="geometry" />
        </mxCell>
        <mxCell id="kF20QqcLhvxLqhXVe1Pa-77" style="rounded=0;orthogonalLoop=1;jettySize=auto;html=1;exitX=1;exitY=0.5;exitDx=0;exitDy=0;entryX=0;entryY=0.5;entryDx=0;entryDy=0;strokeColor=default;endArrow=none;endFill=0;" parent="kF20QqcLhvxLqhXVe1Pa-74" source="kF20QqcLhvxLqhXVe1Pa-75" target="kF20QqcLhvxLqhXVe1Pa-76" edge="1">
          <mxGeometry relative="1" as="geometry">
            <mxPoint x="130" y="161" as="sourcePoint" />
            <mxPoint x="192" y="10" as="targetPoint" />
          </mxGeometry>
        </mxCell>
        <mxCell id="kF20QqcLhvxLqhXVe1Pa-78" value="开始/结束时间" style="ellipse;whiteSpace=wrap;html=1;align=center;fontStyle=4;rounded=0;sketch=0;fillColor=none;" parent="kF20QqcLhvxLqhXVe1Pa-74" vertex="1">
          <mxGeometry x="240" y="110" width="100" height="40" as="geometry" />
        </mxCell>
        <mxCell id="kF20QqcLhvxLqhXVe1Pa-79" style="rounded=0;orthogonalLoop=1;jettySize=auto;html=1;exitX=1;exitY=0.5;exitDx=0;exitDy=0;strokeColor=default;endArrow=none;endFill=0;entryX=0;entryY=0.5;entryDx=0;entryDy=0;" parent="kF20QqcLhvxLqhXVe1Pa-74" source="kF20QqcLhvxLqhXVe1Pa-75" target="kF20QqcLhvxLqhXVe1Pa-78" edge="1">
          <mxGeometry relative="1" as="geometry">
            <mxPoint x="140" y="75" as="sourcePoint" />
            <mxPoint x="220" y="60" as="targetPoint" />
          </mxGeometry>
        </mxCell>
        <mxCell id="kF20QqcLhvxLqhXVe1Pa-80" value="计费规则" style="ellipse;whiteSpace=wrap;html=1;align=center;fontStyle=4;rounded=0;sketch=0;fillColor=none;" parent="kF20QqcLhvxLqhXVe1Pa-74" vertex="1">
          <mxGeometry x="240" y="180" width="100" height="40" as="geometry" />
        </mxCell>
        <mxCell id="kF20QqcLhvxLqhXVe1Pa-82" style="rounded=0;orthogonalLoop=1;jettySize=auto;html=1;exitX=1;exitY=0.5;exitDx=0;exitDy=0;entryX=0.05;entryY=0.675;entryDx=0;entryDy=0;strokeColor=default;endArrow=none;endFill=0;entryPerimeter=0;" parent="kF20QqcLhvxLqhXVe1Pa-74" source="kF20QqcLhvxLqhXVe1Pa-75" target="kF20QqcLhvxLqhXVe1Pa-80" edge="1">
          <mxGeometry relative="1" as="geometry">
            <mxPoint x="130" y="185" as="sourcePoint" />
            <mxPoint x="240" y="80" as="targetPoint" />
          </mxGeometry>
        </mxCell>
        <mxCell id="kF20QqcLhvxLqhXVe1Pa-100" value="1" style="edgeLabel;html=1;align=center;verticalAlign=middle;resizable=0;points=[];" parent="kF20QqcLhvxLqhXVe1Pa-82" vertex="1" connectable="0">
          <mxGeometry x="-0.7234" y="-1" relative="1" as="geometry">
            <mxPoint as="offset" />
          </mxGeometry>
        </mxCell>
        <mxCell id="kF20QqcLhvxLqhXVe1Pa-101" value="N" style="edgeLabel;html=1;align=center;verticalAlign=middle;resizable=0;points=[];" parent="kF20QqcLhvxLqhXVe1Pa-82" vertex="1" connectable="0">
          <mxGeometry x="0.5863" relative="1" as="geometry">
            <mxPoint as="offset" />
          </mxGeometry>
        </mxCell>
        <mxCell id="kF20QqcLhvxLqhXVe1Pa-90" value="计费规则" style="whiteSpace=wrap;html=1;align=center;rounded=0;sketch=0;fillColor=none;" parent="kF20QqcLhvxLqhXVe1Pa-74" vertex="1">
          <mxGeometry x="10" y="320" width="100" height="50" as="geometry" />
        </mxCell>
        <mxCell id="kF20QqcLhvxLqhXVe1Pa-91" value="名称（尖峰/高峰/低谷/平段）" style="ellipse;whiteSpace=wrap;html=1;align=center;fontStyle=4;rounded=0;sketch=0;fillColor=none;" parent="kF20QqcLhvxLqhXVe1Pa-74" vertex="1">
          <mxGeometry x="214" y="260" width="170" height="56" as="geometry" />
        </mxCell>
        <mxCell id="kF20QqcLhvxLqhXVe1Pa-92" value="时间段" style="ellipse;whiteSpace=wrap;html=1;align=center;fontStyle=4;rounded=0;sketch=0;fillColor=none;" parent="kF20QqcLhvxLqhXVe1Pa-74" vertex="1">
          <mxGeometry x="240" y="360" width="100" height="40" as="geometry" />
        </mxCell>
        <mxCell id="kF20QqcLhvxLqhXVe1Pa-102" style="rounded=0;orthogonalLoop=1;jettySize=auto;html=1;exitX=1;exitY=0.5;exitDx=0;exitDy=0;entryX=0;entryY=0.5;entryDx=0;entryDy=0;strokeColor=default;endArrow=none;endFill=0;" parent="kF20QqcLhvxLqhXVe1Pa-74" source="kF20QqcLhvxLqhXVe1Pa-90" target="kF20QqcLhvxLqhXVe1Pa-92" edge="1">
          <mxGeometry relative="1" as="geometry">
            <mxPoint x="120" y="115" as="sourcePoint" />
            <mxPoint x="255" y="217" as="targetPoint" />
          </mxGeometry>
        </mxCell>
        <mxCell id="kF20QqcLhvxLqhXVe1Pa-103" value="1" style="edgeLabel;html=1;align=center;verticalAlign=middle;resizable=0;points=[];" parent="kF20QqcLhvxLqhXVe1Pa-102" vertex="1" connectable="0">
          <mxGeometry x="-0.7234" y="-1" relative="1" as="geometry">
            <mxPoint as="offset" />
          </mxGeometry>
        </mxCell>
        <mxCell id="kF20QqcLhvxLqhXVe1Pa-104" value="N" style="edgeLabel;html=1;align=center;verticalAlign=middle;resizable=0;points=[];" parent="kF20QqcLhvxLqhXVe1Pa-102" vertex="1" connectable="0">
          <mxGeometry x="0.5863" relative="1" as="geometry">
            <mxPoint as="offset" />
          </mxGeometry>
        </mxCell>
        <mxCell id="kF20QqcLhvxLqhXVe1Pa-105" style="rounded=0;orthogonalLoop=1;jettySize=auto;html=1;exitX=1;exitY=0.5;exitDx=0;exitDy=0;strokeColor=default;endArrow=none;endFill=0;entryX=0;entryY=0.5;entryDx=0;entryDy=0;" parent="kF20QqcLhvxLqhXVe1Pa-74" source="kF20QqcLhvxLqhXVe1Pa-90" target="kF20QqcLhvxLqhXVe1Pa-91" edge="1">
          <mxGeometry relative="1" as="geometry">
            <mxPoint x="140" y="320" as="sourcePoint" />
            <mxPoint x="270" y="345" as="targetPoint" />
          </mxGeometry>
        </mxCell>
        <mxCell id="kF20QqcLhvxLqhXVe1Pa-106" value="电表统计月管理" style="swimlane;rounded=0;dashed=1;sketch=0;fillColor=none;spacingLeft=20;align=left;" parent="kF20QqcLhvxLqhXVe1Pa-0" vertex="1">
          <mxGeometry x="20" y="1600" width="610" height="260" as="geometry" />
        </mxCell>
        <mxCell id="kF20QqcLhvxLqhXVe1Pa-107" value="统计月配置规则" style="whiteSpace=wrap;html=1;align=center;rounded=0;sketch=0;fillColor=none;" parent="kF20QqcLhvxLqhXVe1Pa-106" vertex="1">
          <mxGeometry x="10" y="80" width="100" height="50" as="geometry" />
        </mxCell>
        <mxCell id="kF20QqcLhvxLqhXVe1Pa-108" value="类别（自定义/自然月）" style="ellipse;whiteSpace=wrap;html=1;align=center;fontStyle=4;rounded=0;sketch=0;fillColor=none;" parent="kF20QqcLhvxLqhXVe1Pa-106" vertex="1">
          <mxGeometry x="240" y="70" width="140" height="40" as="geometry" />
        </mxCell>
        <mxCell id="kF20QqcLhvxLqhXVe1Pa-109" style="rounded=0;orthogonalLoop=1;jettySize=auto;html=1;exitX=1;exitY=0.5;exitDx=0;exitDy=0;entryX=0;entryY=0.5;entryDx=0;entryDy=0;strokeColor=default;endArrow=none;endFill=0;" parent="kF20QqcLhvxLqhXVe1Pa-106" source="kF20QqcLhvxLqhXVe1Pa-107" target="kF20QqcLhvxLqhXVe1Pa-108" edge="1">
          <mxGeometry relative="1" as="geometry">
            <mxPoint x="130" y="161" as="sourcePoint" />
            <mxPoint x="192" y="10" as="targetPoint" />
          </mxGeometry>
        </mxCell>
        <mxCell id="kF20QqcLhvxLqhXVe1Pa-110" value="开始时间" style="ellipse;whiteSpace=wrap;html=1;align=center;fontStyle=4;rounded=0;sketch=0;fillColor=none;" parent="kF20QqcLhvxLqhXVe1Pa-106" vertex="1">
          <mxGeometry x="240" y="130" width="100" height="40" as="geometry" />
        </mxCell>
        <mxCell id="kF20QqcLhvxLqhXVe1Pa-111" style="rounded=0;orthogonalLoop=1;jettySize=auto;html=1;exitX=1;exitY=0.5;exitDx=0;exitDy=0;strokeColor=default;endArrow=none;endFill=0;entryX=0;entryY=0.5;entryDx=0;entryDy=0;" parent="kF20QqcLhvxLqhXVe1Pa-106" source="kF20QqcLhvxLqhXVe1Pa-107" target="kF20QqcLhvxLqhXVe1Pa-110" edge="1">
          <mxGeometry relative="1" as="geometry">
            <mxPoint x="140" y="75" as="sourcePoint" />
            <mxPoint x="220" y="60" as="targetPoint" />
          </mxGeometry>
        </mxCell>
        <mxCell id="kF20QqcLhvxLqhXVe1Pa-112" value="结束时间" style="ellipse;whiteSpace=wrap;html=1;align=center;fontStyle=4;rounded=0;sketch=0;fillColor=none;" parent="kF20QqcLhvxLqhXVe1Pa-106" vertex="1">
          <mxGeometry x="240" y="190" width="100" height="40" as="geometry" />
        </mxCell>
        <mxCell id="kF20QqcLhvxLqhXVe1Pa-113" style="rounded=0;orthogonalLoop=1;jettySize=auto;html=1;exitX=1;exitY=0.5;exitDx=0;exitDy=0;entryX=0.05;entryY=0.675;entryDx=0;entryDy=0;strokeColor=default;endArrow=none;endFill=0;entryPerimeter=0;" parent="kF20QqcLhvxLqhXVe1Pa-106" source="kF20QqcLhvxLqhXVe1Pa-107" target="kF20QqcLhvxLqhXVe1Pa-112" edge="1">
          <mxGeometry relative="1" as="geometry">
            <mxPoint x="130" y="185" as="sourcePoint" />
            <mxPoint x="240" y="80" as="targetPoint" />
          </mxGeometry>
        </mxCell>
        <mxCell id="kF20QqcLhvxLqhXVe1Pa-123" value="本月/上月" style="text;html=1;resizable=0;autosize=1;align=center;verticalAlign=middle;points=[];fillColor=none;strokeColor=none;rounded=0;sketch=0;" parent="kF20QqcLhvxLqhXVe1Pa-106" vertex="1">
          <mxGeometry x="349" y="140" width="70" height="20" as="geometry" />
        </mxCell>
        <mxCell id="kF20QqcLhvxLqhXVe1Pa-124" value="本月/下月" style="text;html=1;resizable=0;autosize=1;align=center;verticalAlign=middle;points=[];fillColor=none;strokeColor=none;rounded=0;sketch=0;" parent="kF20QqcLhvxLqhXVe1Pa-106" vertex="1">
          <mxGeometry x="349" y="200" width="70" height="20" as="geometry" />
        </mxCell>
        <mxCell id="kF20QqcLhvxLqhXVe1Pa-125" value="电能耗管理" style="swimlane;rounded=0;dashed=1;sketch=0;fillColor=none;spacingLeft=20;align=left;" parent="kF20QqcLhvxLqhXVe1Pa-0" vertex="1">
          <mxGeometry x="20" y="1890" width="840" height="1120" as="geometry" />
        </mxCell>
        <mxCell id="kF20QqcLhvxLqhXVe1Pa-126" value="抄表记录" style="whiteSpace=wrap;html=1;align=center;rounded=0;sketch=0;fillColor=none;" parent="kF20QqcLhvxLqhXVe1Pa-125" vertex="1">
          <mxGeometry x="20" y="264" width="100" height="50" as="geometry" />
        </mxCell>
        <mxCell id="kF20QqcLhvxLqhXVe1Pa-127" value="类别（手动抄表/系统采集）" style="ellipse;whiteSpace=wrap;html=1;align=center;fontStyle=4;rounded=0;sketch=0;fillColor=none;" parent="kF20QqcLhvxLqhXVe1Pa-125" vertex="1">
          <mxGeometry x="240" y="108" width="200" height="40" as="geometry" />
        </mxCell>
        <mxCell id="kF20QqcLhvxLqhXVe1Pa-128" style="rounded=0;orthogonalLoop=1;jettySize=auto;html=1;exitX=1;exitY=0.5;exitDx=0;exitDy=0;entryX=0;entryY=0.5;entryDx=0;entryDy=0;strokeColor=default;endArrow=none;endFill=0;" parent="kF20QqcLhvxLqhXVe1Pa-125" source="kF20QqcLhvxLqhXVe1Pa-126" target="kF20QqcLhvxLqhXVe1Pa-127" edge="1">
          <mxGeometry relative="1" as="geometry">
            <mxPoint x="130" y="161" as="sourcePoint" />
            <mxPoint x="192" y="10" as="targetPoint" />
          </mxGeometry>
        </mxCell>
        <mxCell id="kF20QqcLhvxLqhXVe1Pa-129" value="抄表时间" style="ellipse;whiteSpace=wrap;html=1;align=center;fontStyle=4;rounded=0;sketch=0;fillColor=none;" parent="kF20QqcLhvxLqhXVe1Pa-125" vertex="1">
          <mxGeometry x="240" y="160" width="100" height="40" as="geometry" />
        </mxCell>
        <mxCell id="kF20QqcLhvxLqhXVe1Pa-130" style="rounded=0;orthogonalLoop=1;jettySize=auto;html=1;exitX=1;exitY=0.5;exitDx=0;exitDy=0;strokeColor=default;endArrow=none;endFill=0;entryX=0;entryY=0.5;entryDx=0;entryDy=0;" parent="kF20QqcLhvxLqhXVe1Pa-125" source="kF20QqcLhvxLqhXVe1Pa-126" target="kF20QqcLhvxLqhXVe1Pa-129" edge="1">
          <mxGeometry relative="1" as="geometry">
            <mxPoint x="140" y="75" as="sourcePoint" />
            <mxPoint x="220" y="60" as="targetPoint" />
          </mxGeometry>
        </mxCell>
        <mxCell id="kF20QqcLhvxLqhXVe1Pa-131" value="抄表示数" style="ellipse;whiteSpace=wrap;html=1;align=center;fontStyle=4;rounded=0;sketch=0;fillColor=none;" parent="kF20QqcLhvxLqhXVe1Pa-125" vertex="1">
          <mxGeometry x="240" y="220" width="100" height="40" as="geometry" />
        </mxCell>
        <mxCell id="kF20QqcLhvxLqhXVe1Pa-132" style="rounded=0;orthogonalLoop=1;jettySize=auto;html=1;exitX=1;exitY=0.5;exitDx=0;exitDy=0;entryX=0.05;entryY=0.675;entryDx=0;entryDy=0;strokeColor=default;endArrow=none;endFill=0;entryPerimeter=0;" parent="kF20QqcLhvxLqhXVe1Pa-125" source="kF20QqcLhvxLqhXVe1Pa-126" target="kF20QqcLhvxLqhXVe1Pa-131" edge="1">
          <mxGeometry relative="1" as="geometry">
            <mxPoint x="130" y="185" as="sourcePoint" />
            <mxPoint x="240" y="80" as="targetPoint" />
          </mxGeometry>
        </mxCell>
        <mxCell id="kF20QqcLhvxLqhXVe1Pa-135" value="电表位置" style="ellipse;whiteSpace=wrap;html=1;align=center;fontStyle=4;rounded=0;sketch=0;fillColor=none;" parent="kF20QqcLhvxLqhXVe1Pa-125" vertex="1">
          <mxGeometry x="240" y="60" width="100" height="40" as="geometry" />
        </mxCell>
        <mxCell id="kF20QqcLhvxLqhXVe1Pa-136" style="rounded=0;orthogonalLoop=1;jettySize=auto;html=1;exitX=1;exitY=0.5;exitDx=0;exitDy=0;entryX=0;entryY=0.5;entryDx=0;entryDy=0;strokeColor=default;endArrow=none;endFill=0;" parent="kF20QqcLhvxLqhXVe1Pa-125" source="kF20QqcLhvxLqhXVe1Pa-126" target="kF20QqcLhvxLqhXVe1Pa-135" edge="1">
          <mxGeometry relative="1" as="geometry">
            <mxPoint x="120" y="115" as="sourcePoint" />
            <mxPoint x="230" y="140" as="targetPoint" />
          </mxGeometry>
        </mxCell>
        <mxCell id="kF20QqcLhvxLqhXVe1Pa-137" value="功率" style="ellipse;whiteSpace=wrap;html=1;align=center;fontStyle=4;rounded=0;sketch=0;fillColor=none;" parent="kF20QqcLhvxLqhXVe1Pa-125" vertex="1">
          <mxGeometry x="240" y="290" width="100" height="40" as="geometry" />
        </mxCell>
        <mxCell id="kF20QqcLhvxLqhXVe1Pa-138" value="电流" style="ellipse;whiteSpace=wrap;html=1;align=center;fontStyle=4;rounded=0;sketch=0;fillColor=none;" parent="kF20QqcLhvxLqhXVe1Pa-125" vertex="1">
          <mxGeometry x="240" y="340" width="100" height="40" as="geometry" />
        </mxCell>
        <mxCell id="kF20QqcLhvxLqhXVe1Pa-139" value="电压" style="ellipse;whiteSpace=wrap;html=1;align=center;fontStyle=4;rounded=0;sketch=0;fillColor=none;" parent="kF20QqcLhvxLqhXVe1Pa-125" vertex="1">
          <mxGeometry x="240" y="400" width="100" height="40" as="geometry" />
        </mxCell>
        <mxCell id="kF20QqcLhvxLqhXVe1Pa-142" value="功率因数" style="ellipse;whiteSpace=wrap;html=1;align=center;fontStyle=4;rounded=0;sketch=0;fillColor=none;" parent="kF20QqcLhvxLqhXVe1Pa-125" vertex="1">
          <mxGeometry x="240" y="460" width="100" height="40" as="geometry" />
        </mxCell>
        <mxCell id="kF20QqcLhvxLqhXVe1Pa-145" style="rounded=0;orthogonalLoop=1;jettySize=auto;html=1;entryX=0;entryY=0.5;entryDx=0;entryDy=0;strokeColor=default;endArrow=none;endFill=0;exitX=1;exitY=0.5;exitDx=0;exitDy=0;" parent="kF20QqcLhvxLqhXVe1Pa-125" source="kF20QqcLhvxLqhXVe1Pa-126" target="kF20QqcLhvxLqhXVe1Pa-139" edge="1">
          <mxGeometry relative="1" as="geometry">
            <mxPoint x="110" y="290" as="sourcePoint" />
            <mxPoint x="155" y="490" as="targetPoint" />
          </mxGeometry>
        </mxCell>
        <mxCell id="kF20QqcLhvxLqhXVe1Pa-144" style="rounded=0;orthogonalLoop=1;jettySize=auto;html=1;exitX=1;exitY=0.5;exitDx=0;exitDy=0;entryX=0;entryY=0.5;entryDx=0;entryDy=0;strokeColor=default;endArrow=none;endFill=0;" parent="kF20QqcLhvxLqhXVe1Pa-125" source="kF20QqcLhvxLqhXVe1Pa-126" target="kF20QqcLhvxLqhXVe1Pa-138" edge="1">
          <mxGeometry relative="1" as="geometry">
            <mxPoint x="20" y="460" as="sourcePoint" />
            <mxPoint x="165" y="422" as="targetPoint" />
          </mxGeometry>
        </mxCell>
        <mxCell id="kF20QqcLhvxLqhXVe1Pa-143" style="rounded=0;orthogonalLoop=1;jettySize=auto;html=1;exitX=1;exitY=0.5;exitDx=0;exitDy=0;strokeColor=default;endArrow=none;endFill=0;" parent="kF20QqcLhvxLqhXVe1Pa-125" source="kF20QqcLhvxLqhXVe1Pa-126" edge="1">
          <mxGeometry relative="1" as="geometry">
            <mxPoint x="110" y="348" as="sourcePoint" />
            <mxPoint x="240" y="310" as="targetPoint" />
          </mxGeometry>
        </mxCell>
        <mxCell id="kF20QqcLhvxLqhXVe1Pa-146" style="rounded=0;orthogonalLoop=1;jettySize=auto;html=1;entryX=0;entryY=0.5;entryDx=0;entryDy=0;strokeColor=default;endArrow=none;endFill=0;exitX=1;exitY=0.5;exitDx=0;exitDy=0;" parent="kF20QqcLhvxLqhXVe1Pa-125" source="kF20QqcLhvxLqhXVe1Pa-126" target="kF20QqcLhvxLqhXVe1Pa-142" edge="1">
          <mxGeometry relative="1" as="geometry">
            <mxPoint x="110" y="290" as="sourcePoint" />
            <mxPoint x="250" y="430" as="targetPoint" />
          </mxGeometry>
        </mxCell>
        <mxCell id="kF20QqcLhvxLqhXVe1Pa-147" value="小时/天/月电量统计记录" style="whiteSpace=wrap;html=1;align=center;rounded=0;sketch=0;fillColor=none;" parent="kF20QqcLhvxLqhXVe1Pa-125" vertex="1">
          <mxGeometry x="20" y="590" width="170" height="50" as="geometry" />
        </mxCell>
        <mxCell id="kF20QqcLhvxLqhXVe1Pa-148" value="统计时间" style="ellipse;whiteSpace=wrap;html=1;align=center;fontStyle=4;rounded=0;sketch=0;fillColor=none;" parent="kF20QqcLhvxLqhXVe1Pa-125" vertex="1">
          <mxGeometry x="360" y="490" width="100" height="40" as="geometry" />
        </mxCell>
        <mxCell id="kF20QqcLhvxLqhXVe1Pa-149" value="用电量" style="ellipse;whiteSpace=wrap;html=1;align=center;fontStyle=4;rounded=0;sketch=0;fillColor=none;" parent="kF20QqcLhvxLqhXVe1Pa-125" vertex="1">
          <mxGeometry x="370" y="550" width="100" height="40" as="geometry" />
        </mxCell>
        <mxCell id="kF20QqcLhvxLqhXVe1Pa-150" value="起始抄表记录" style="ellipse;whiteSpace=wrap;html=1;align=center;fontStyle=4;rounded=0;sketch=0;fillColor=none;" parent="kF20QqcLhvxLqhXVe1Pa-125" vertex="1">
          <mxGeometry x="360" y="660" width="100" height="40" as="geometry" />
        </mxCell>
        <mxCell id="kF20QqcLhvxLqhXVe1Pa-151" value="结束抄表记录" style="ellipse;whiteSpace=wrap;html=1;align=center;fontStyle=4;rounded=0;sketch=0;fillColor=none;" parent="kF20QqcLhvxLqhXVe1Pa-125" vertex="1">
          <mxGeometry x="384" y="730" width="100" height="43" as="geometry" />
        </mxCell>
        <mxCell id="kF20QqcLhvxLqhXVe1Pa-152" style="rounded=0;orthogonalLoop=1;jettySize=auto;html=1;entryX=0;entryY=0.5;entryDx=0;entryDy=0;strokeColor=default;endArrow=none;endFill=0;exitX=1;exitY=0.5;exitDx=0;exitDy=0;" parent="kF20QqcLhvxLqhXVe1Pa-125" source="kF20QqcLhvxLqhXVe1Pa-147" target="kF20QqcLhvxLqhXVe1Pa-148" edge="1">
          <mxGeometry relative="1" as="geometry">
            <mxPoint x="130" y="580" as="sourcePoint" />
            <mxPoint x="250" y="771" as="targetPoint" />
          </mxGeometry>
        </mxCell>
        <mxCell id="kF20QqcLhvxLqhXVe1Pa-153" style="rounded=0;orthogonalLoop=1;jettySize=auto;html=1;entryX=0;entryY=0.5;entryDx=0;entryDy=0;strokeColor=default;endArrow=none;endFill=0;exitX=1;exitY=0.5;exitDx=0;exitDy=0;" parent="kF20QqcLhvxLqhXVe1Pa-125" source="kF20QqcLhvxLqhXVe1Pa-147" target="kF20QqcLhvxLqhXVe1Pa-149" edge="1">
          <mxGeometry relative="1" as="geometry">
            <mxPoint x="120" y="615" as="sourcePoint" />
            <mxPoint x="180" y="570" as="targetPoint" />
          </mxGeometry>
        </mxCell>
        <mxCell id="kF20QqcLhvxLqhXVe1Pa-154" style="rounded=0;orthogonalLoop=1;jettySize=auto;html=1;entryX=0;entryY=0.5;entryDx=0;entryDy=0;strokeColor=default;endArrow=none;endFill=0;exitX=1;exitY=0.5;exitDx=0;exitDy=0;" parent="kF20QqcLhvxLqhXVe1Pa-125" source="kF20QqcLhvxLqhXVe1Pa-147" target="kF20QqcLhvxLqhXVe1Pa-150" edge="1">
          <mxGeometry relative="1" as="geometry">
            <mxPoint x="120" y="645" as="sourcePoint" />
            <mxPoint x="180" y="620" as="targetPoint" />
          </mxGeometry>
        </mxCell>
        <mxCell id="kF20QqcLhvxLqhXVe1Pa-155" style="rounded=0;orthogonalLoop=1;jettySize=auto;html=1;entryX=0;entryY=0.5;entryDx=0;entryDy=0;strokeColor=default;endArrow=none;endFill=0;exitX=1;exitY=0.5;exitDx=0;exitDy=0;" parent="kF20QqcLhvxLqhXVe1Pa-125" source="kF20QqcLhvxLqhXVe1Pa-147" target="kF20QqcLhvxLqhXVe1Pa-151" edge="1">
          <mxGeometry relative="1" as="geometry">
            <mxPoint x="120" y="615" as="sourcePoint" />
            <mxPoint x="180" y="680" as="targetPoint" />
          </mxGeometry>
        </mxCell>
        <mxCell id="kF20QqcLhvxLqhXVe1Pa-156" value="电费" style="ellipse;whiteSpace=wrap;html=1;align=center;fontStyle=4;rounded=0;sketch=0;fillColor=none;" parent="kF20QqcLhvxLqhXVe1Pa-125" vertex="1">
          <mxGeometry x="320" y="773" width="100" height="40" as="geometry" />
        </mxCell>
        <mxCell id="kF20QqcLhvxLqhXVe1Pa-157" value="分摊电量" style="ellipse;whiteSpace=wrap;html=1;align=center;fontStyle=4;rounded=0;sketch=0;fillColor=none;" parent="kF20QqcLhvxLqhXVe1Pa-125" vertex="1">
          <mxGeometry x="380" y="610" width="100" height="40" as="geometry" />
        </mxCell>
        <mxCell id="kF20QqcLhvxLqhXVe1Pa-158" value="最大功率" style="ellipse;whiteSpace=wrap;html=1;align=center;fontStyle=4;rounded=0;sketch=0;fillColor=none;" parent="kF20QqcLhvxLqhXVe1Pa-125" vertex="1">
          <mxGeometry x="284" y="830" width="100" height="40" as="geometry" />
        </mxCell>
        <mxCell id="kF20QqcLhvxLqhXVe1Pa-159" value="最大电流" style="ellipse;whiteSpace=wrap;html=1;align=center;fontStyle=4;rounded=0;sketch=0;fillColor=none;" parent="kF20QqcLhvxLqhXVe1Pa-125" vertex="1">
          <mxGeometry x="260" y="890" width="100" height="40" as="geometry" />
        </mxCell>
        <mxCell id="kF20QqcLhvxLqhXVe1Pa-160" value="最大电压" style="ellipse;whiteSpace=wrap;html=1;align=center;fontStyle=4;rounded=0;sketch=0;fillColor=none;" parent="kF20QqcLhvxLqhXVe1Pa-125" vertex="1">
          <mxGeometry x="240" y="950" width="100" height="40" as="geometry" />
        </mxCell>
        <mxCell id="kF20QqcLhvxLqhXVe1Pa-161" value="平均功率因数" style="ellipse;whiteSpace=wrap;html=1;align=center;fontStyle=4;rounded=0;sketch=0;fillColor=none;" parent="kF20QqcLhvxLqhXVe1Pa-125" vertex="1">
          <mxGeometry x="150" y="1000" width="100" height="40" as="geometry" />
        </mxCell>
        <mxCell id="kF20QqcLhvxLqhXVe1Pa-162" style="rounded=0;orthogonalLoop=1;jettySize=auto;html=1;entryX=0;entryY=0.5;entryDx=0;entryDy=0;strokeColor=default;endArrow=none;endFill=0;exitX=0.5;exitY=1;exitDx=0;exitDy=0;" parent="kF20QqcLhvxLqhXVe1Pa-125" source="kF20QqcLhvxLqhXVe1Pa-147" target="kF20QqcLhvxLqhXVe1Pa-156" edge="1">
          <mxGeometry relative="1" as="geometry">
            <mxPoint x="130" y="655" as="sourcePoint" />
            <mxPoint x="180" y="730" as="targetPoint" />
          </mxGeometry>
        </mxCell>
        <mxCell id="kF20QqcLhvxLqhXVe1Pa-163" style="rounded=0;orthogonalLoop=1;jettySize=auto;html=1;entryX=0;entryY=0.5;entryDx=0;entryDy=0;strokeColor=default;endArrow=none;endFill=0;exitX=0.5;exitY=1;exitDx=0;exitDy=0;" parent="kF20QqcLhvxLqhXVe1Pa-125" source="kF20QqcLhvxLqhXVe1Pa-147" target="kF20QqcLhvxLqhXVe1Pa-158" edge="1">
          <mxGeometry relative="1" as="geometry">
            <mxPoint x="80" y="680" as="sourcePoint" />
            <mxPoint x="180" y="780" as="targetPoint" />
          </mxGeometry>
        </mxCell>
        <mxCell id="kF20QqcLhvxLqhXVe1Pa-164" style="rounded=0;orthogonalLoop=1;jettySize=auto;html=1;strokeColor=default;endArrow=none;endFill=0;exitX=1;exitY=0.5;exitDx=0;exitDy=0;" parent="kF20QqcLhvxLqhXVe1Pa-125" source="kF20QqcLhvxLqhXVe1Pa-147" target="kF20QqcLhvxLqhXVe1Pa-157" edge="1">
          <mxGeometry relative="1" as="geometry">
            <mxPoint x="150" y="650" as="sourcePoint" />
            <mxPoint x="180" y="620" as="targetPoint" />
          </mxGeometry>
        </mxCell>
        <mxCell id="kF20QqcLhvxLqhXVe1Pa-165" style="rounded=0;orthogonalLoop=1;jettySize=auto;html=1;entryX=0;entryY=0.5;entryDx=0;entryDy=0;strokeColor=default;endArrow=none;endFill=0;exitX=0.5;exitY=1;exitDx=0;exitDy=0;" parent="kF20QqcLhvxLqhXVe1Pa-125" source="kF20QqcLhvxLqhXVe1Pa-147" target="kF20QqcLhvxLqhXVe1Pa-159" edge="1">
          <mxGeometry relative="1" as="geometry">
            <mxPoint x="80" y="680" as="sourcePoint" />
            <mxPoint x="150" y="830" as="targetPoint" />
          </mxGeometry>
        </mxCell>
        <mxCell id="kF20QqcLhvxLqhXVe1Pa-166" style="rounded=0;orthogonalLoop=1;jettySize=auto;html=1;entryX=0;entryY=0.5;entryDx=0;entryDy=0;strokeColor=default;endArrow=none;endFill=0;exitX=0.5;exitY=1;exitDx=0;exitDy=0;" parent="kF20QqcLhvxLqhXVe1Pa-125" source="kF20QqcLhvxLqhXVe1Pa-147" target="kF20QqcLhvxLqhXVe1Pa-160" edge="1">
          <mxGeometry relative="1" as="geometry">
            <mxPoint x="80" y="680" as="sourcePoint" />
            <mxPoint x="150" y="890" as="targetPoint" />
          </mxGeometry>
        </mxCell>
        <mxCell id="kF20QqcLhvxLqhXVe1Pa-167" style="rounded=0;orthogonalLoop=1;jettySize=auto;html=1;entryX=0;entryY=0.5;entryDx=0;entryDy=0;strokeColor=default;endArrow=none;endFill=0;exitX=0.5;exitY=1;exitDx=0;exitDy=0;" parent="kF20QqcLhvxLqhXVe1Pa-125" source="kF20QqcLhvxLqhXVe1Pa-147" target="kF20QqcLhvxLqhXVe1Pa-161" edge="1">
          <mxGeometry relative="1" as="geometry">
            <mxPoint x="80" y="680" as="sourcePoint" />
            <mxPoint x="150" y="950" as="targetPoint" />
          </mxGeometry>
        </mxCell>
      </root>
    </mxGraphModel>
  </diagram>
</mxfile>
